<svg xmlns="http://www.w3.org/2000/svg" viewBox="0 0 140 140" role="img">
  <title>Visual Opensource Logo (Aero)</title>
  <defs>
    <linearGradient id="g1" x1="0" x2="1" y1="0" y2="1">
      <stop offset="0" stop-color="#7bd84b"/>
      <stop offset="1" stop-color="#2ea23a"/>
    </linearGradient>
    <filter id="frost" x="-20%" y="-20%" width="140%" height="140%">
      <feGaussianBlur stdDeviation="6" result="b"/>
      <feComposite in="SourceGraphic" in2="b" operator="over"/>
    </filter>
    <filter id="drops" x="-20%" y="-20%" width="140%" height="140%">
      <feOffset dy="2" in="SourceAlpha" result="off"/>
      <feGaussianBlur in="off" stdDeviation="4" result="blur"/>
      <feColorMatrix in="blur" type="matrix" values="0 0 0 0 0  0 0 0 0 0  0 0 0 0 0  0 0 0 0 0.18 0"/>
      <feBlend in="SourceGraphic" in2="blur" mode="normal"/>
    </filter>
  </defs>

  <!-- Frosted rounded background (Aero) -->
  <rect x="4" y="4" width="132" height="132" rx="20" ry="20" fill="url(#g1)" opacity="0.95" filter="url(#drops)"/>

  <!-- translucent overlay to emulate frosted glass -->
  <rect x="10" y="10" width="120" height="60" rx="12" ry="12" fill="white" opacity="0.12" filter="url(#frost)"/>

  <!-- Curved logo mark (scaled down and softened) -->
  <g transform="translate(20,22) scale(0.8)">
    <path d="M70.91 99.32c1.57.61 3.37.57 4.96-.19L94.5 89.5c3-2 4-5 3.5-8C97.5 75.5 97 60.5 97 50c0-10.5.5-25.5 1-31C98.5 15.5 97.5 12.5 94.5 10.5L75.87.87c-2.09-1-4.53-.76-6.36.56-.26.19-.51.4-.74.64L29.36 38.04 12.19 25.01c-1.6-1.21-3.84-1.12-5.33.24L1.36 30.25c-1.82 1.65-1.82 4.51 0 6.16L16.25 50 1.36 63.58c-1.82 1.65-1.82 4.51 0 6.16l5.51 5.01c1.48 1.35 3.72 1.45 5.33.24L29.36 61.96 68.77 97.92c.62.62 1.35 1.09 2.14 1.38zM75.02 27.3 45.11 50l29.9 22.7V27.3z" fill="#fff" opacity="0.98"/>
    <path d="M96.46 10.8 75.86.88c-2.38-1.15-5.23.33-7.1 2.2L1.3 63.58c-1.81 1.66-1.8 4.52 0 6.17l5.51 5c1.49 1.35 3.73 1.45 5.33.24L93.36 13.37c2.73-2.07 6.64-.13 6.64 3.31V16.43c0-2.4-1.38-4.59-3.54-5.63z" fill="rgba(0,0,0,0.06)"/>
  </g>

  <!-- subtle highlight strip -->
  <rect x="20" y="92" width="100" height="6" rx="3" fill="white" opacity="0.06"/>
</svg>
